<mxfile host="app.diagrams.net" agent="Mozilla/5.0 (X11; Linux x86_64; rv:128.0) Gecko/20100101 Firefox/128.0" version="26.0.14">
  <diagram name="Page-1" id="n36We_7hir3YMjg6p6uC">
    <mxGraphModel dx="1366" dy="807" grid="1" gridSize="10" guides="1" tooltips="1" connect="1" arrows="1" fold="1" page="1" pageScale="1" pageWidth="850" pageHeight="1100" math="0" shadow="0">
      <root>
        <mxCell id="0" />
        <mxCell id="1" parent="0" />
        <mxCell id="04tcgGShXZWp1IH_Y-ZH-78" value="" style="group" vertex="1" connectable="0" parent="1">
          <mxGeometry width="1000" height="410" as="geometry" />
        </mxCell>
        <mxCell id="04tcgGShXZWp1IH_Y-ZH-77" value="" style="rounded=0;whiteSpace=wrap;html=1;" vertex="1" parent="04tcgGShXZWp1IH_Y-ZH-78">
          <mxGeometry width="1000" height="410" as="geometry" />
        </mxCell>
        <mxCell id="04tcgGShXZWp1IH_Y-ZH-1" value="Cliente" style="rounded=0;whiteSpace=wrap;html=1;fillColor=#d5e8d4;strokeColor=#82b366;" vertex="1" parent="04tcgGShXZWp1IH_Y-ZH-78">
          <mxGeometry x="40" y="300" width="120" height="60" as="geometry" />
        </mxCell>
        <mxCell id="04tcgGShXZWp1IH_Y-ZH-6" style="edgeStyle=orthogonalEdgeStyle;rounded=0;orthogonalLoop=1;jettySize=auto;html=1;exitX=1;exitY=0.5;exitDx=0;exitDy=0;entryX=0;entryY=0.5;entryDx=0;entryDy=0;" edge="1" parent="04tcgGShXZWp1IH_Y-ZH-78" source="04tcgGShXZWp1IH_Y-ZH-2" target="04tcgGShXZWp1IH_Y-ZH-3">
          <mxGeometry relative="1" as="geometry" />
        </mxCell>
        <mxCell id="04tcgGShXZWp1IH_Y-ZH-7" style="edgeStyle=orthogonalEdgeStyle;rounded=0;orthogonalLoop=1;jettySize=auto;html=1;exitX=0;exitY=0.5;exitDx=0;exitDy=0;entryX=1;entryY=0.5;entryDx=0;entryDy=0;endArrow=none;startFill=0;" edge="1" parent="04tcgGShXZWp1IH_Y-ZH-78" source="04tcgGShXZWp1IH_Y-ZH-2" target="04tcgGShXZWp1IH_Y-ZH-1">
          <mxGeometry relative="1" as="geometry" />
        </mxCell>
        <mxCell id="04tcgGShXZWp1IH_Y-ZH-2" value="pagar" style="rhombus;whiteSpace=wrap;html=1;fillColor=#fff2cc;strokeColor=#d6b656;" vertex="1" parent="04tcgGShXZWp1IH_Y-ZH-78">
          <mxGeometry x="260" y="290" width="80" height="80" as="geometry" />
        </mxCell>
        <mxCell id="04tcgGShXZWp1IH_Y-ZH-3" value="Factura" style="rounded=0;whiteSpace=wrap;html=1;fillColor=#d5e8d4;strokeColor=#82b366;" vertex="1" parent="04tcgGShXZWp1IH_Y-ZH-78">
          <mxGeometry x="440" y="300" width="120" height="60" as="geometry" />
        </mxCell>
        <mxCell id="04tcgGShXZWp1IH_Y-ZH-11" style="edgeStyle=orthogonalEdgeStyle;rounded=0;orthogonalLoop=1;jettySize=auto;html=1;exitX=0;exitY=0.5;exitDx=0;exitDy=0;entryX=1;entryY=0.5;entryDx=0;entryDy=0;" edge="1" parent="04tcgGShXZWp1IH_Y-ZH-78" source="04tcgGShXZWp1IH_Y-ZH-4" target="04tcgGShXZWp1IH_Y-ZH-3">
          <mxGeometry relative="1" as="geometry" />
        </mxCell>
        <mxCell id="04tcgGShXZWp1IH_Y-ZH-12" style="edgeStyle=orthogonalEdgeStyle;rounded=0;orthogonalLoop=1;jettySize=auto;html=1;exitX=1;exitY=0.5;exitDx=0;exitDy=0;entryX=0;entryY=0.5;entryDx=0;entryDy=0;" edge="1" parent="04tcgGShXZWp1IH_Y-ZH-78" source="04tcgGShXZWp1IH_Y-ZH-4" target="04tcgGShXZWp1IH_Y-ZH-5">
          <mxGeometry relative="1" as="geometry" />
        </mxCell>
        <mxCell id="04tcgGShXZWp1IH_Y-ZH-4" value="estar" style="rhombus;whiteSpace=wrap;html=1;fillColor=#fff2cc;strokeColor=#d6b656;" vertex="1" parent="04tcgGShXZWp1IH_Y-ZH-78">
          <mxGeometry x="660" y="290" width="80" height="80" as="geometry" />
        </mxCell>
        <mxCell id="04tcgGShXZWp1IH_Y-ZH-5" value="Servicio" style="rounded=0;whiteSpace=wrap;html=1;fillColor=#d5e8d4;strokeColor=#82b366;" vertex="1" parent="04tcgGShXZWp1IH_Y-ZH-78">
          <mxGeometry x="840" y="300" width="120" height="60" as="geometry" />
        </mxCell>
        <mxCell id="04tcgGShXZWp1IH_Y-ZH-8" value="(1:N)" style="text;html=1;align=center;verticalAlign=middle;resizable=0;points=[];autosize=1;strokeColor=none;fillColor=none;" vertex="1" parent="04tcgGShXZWp1IH_Y-ZH-78">
          <mxGeometry x="390" y="300" width="50" height="30" as="geometry" />
        </mxCell>
        <mxCell id="04tcgGShXZWp1IH_Y-ZH-9" value="(1:1)" style="text;html=1;align=center;verticalAlign=middle;resizable=0;points=[];autosize=1;strokeColor=none;fillColor=none;" vertex="1" parent="04tcgGShXZWp1IH_Y-ZH-78">
          <mxGeometry x="160" y="300" width="50" height="30" as="geometry" />
        </mxCell>
        <mxCell id="04tcgGShXZWp1IH_Y-ZH-10" value="1:N" style="text;html=1;align=center;verticalAlign=middle;resizable=0;points=[];autosize=1;strokeColor=none;fillColor=none;fontStyle=1" vertex="1" parent="04tcgGShXZWp1IH_Y-ZH-78">
          <mxGeometry x="280" y="260" width="40" height="30" as="geometry" />
        </mxCell>
        <mxCell id="04tcgGShXZWp1IH_Y-ZH-13" value="(1:N)" style="text;html=1;align=center;verticalAlign=middle;resizable=0;points=[];autosize=1;strokeColor=none;fillColor=none;" vertex="1" parent="04tcgGShXZWp1IH_Y-ZH-78">
          <mxGeometry x="790" y="300" width="50" height="30" as="geometry" />
        </mxCell>
        <mxCell id="04tcgGShXZWp1IH_Y-ZH-14" value="(0:N)" style="text;html=1;align=center;verticalAlign=middle;resizable=0;points=[];autosize=1;strokeColor=none;fillColor=none;" vertex="1" parent="04tcgGShXZWp1IH_Y-ZH-78">
          <mxGeometry x="560" y="300" width="50" height="30" as="geometry" />
        </mxCell>
        <mxCell id="04tcgGShXZWp1IH_Y-ZH-15" value="N:M" style="text;html=1;align=center;verticalAlign=middle;resizable=0;points=[];autosize=1;strokeColor=none;fillColor=none;fontStyle=1" vertex="1" parent="04tcgGShXZWp1IH_Y-ZH-78">
          <mxGeometry x="675" y="260" width="50" height="30" as="geometry" />
        </mxCell>
        <mxCell id="04tcgGShXZWp1IH_Y-ZH-45" style="edgeStyle=orthogonalEdgeStyle;rounded=0;orthogonalLoop=1;jettySize=auto;html=1;exitX=1;exitY=0.5;exitDx=0;exitDy=0;entryX=0;entryY=0.5;entryDx=0;entryDy=0;" edge="1" parent="04tcgGShXZWp1IH_Y-ZH-78" source="04tcgGShXZWp1IH_Y-ZH-16" target="04tcgGShXZWp1IH_Y-ZH-42">
          <mxGeometry relative="1" as="geometry" />
        </mxCell>
        <mxCell id="04tcgGShXZWp1IH_Y-ZH-16" value="Clientes" style="shape=table;startSize=30;container=1;collapsible=1;childLayout=tableLayout;fixedRows=1;rowLines=0;fontStyle=1;align=center;resizeLast=1;html=1;" vertex="1" parent="04tcgGShXZWp1IH_Y-ZH-78">
          <mxGeometry x="80" y="40" width="180" height="90" as="geometry" />
        </mxCell>
        <mxCell id="04tcgGShXZWp1IH_Y-ZH-17" value="" style="shape=tableRow;horizontal=0;startSize=0;swimlaneHead=0;swimlaneBody=0;fillColor=none;collapsible=0;dropTarget=0;points=[[0,0.5],[1,0.5]];portConstraint=eastwest;top=0;left=0;right=0;bottom=1;" vertex="1" parent="04tcgGShXZWp1IH_Y-ZH-16">
          <mxGeometry y="30" width="180" height="30" as="geometry" />
        </mxCell>
        <mxCell id="04tcgGShXZWp1IH_Y-ZH-18" value="PK" style="shape=partialRectangle;connectable=0;fillColor=none;top=0;left=0;bottom=0;right=0;fontStyle=1;overflow=hidden;whiteSpace=wrap;html=1;" vertex="1" parent="04tcgGShXZWp1IH_Y-ZH-17">
          <mxGeometry width="30" height="30" as="geometry">
            <mxRectangle width="30" height="30" as="alternateBounds" />
          </mxGeometry>
        </mxCell>
        <mxCell id="04tcgGShXZWp1IH_Y-ZH-19" value="id_cliente" style="shape=partialRectangle;connectable=0;fillColor=none;top=0;left=0;bottom=0;right=0;align=left;spacingLeft=6;fontStyle=5;overflow=hidden;whiteSpace=wrap;html=1;" vertex="1" parent="04tcgGShXZWp1IH_Y-ZH-17">
          <mxGeometry x="30" width="150" height="30" as="geometry">
            <mxRectangle width="150" height="30" as="alternateBounds" />
          </mxGeometry>
        </mxCell>
        <mxCell id="04tcgGShXZWp1IH_Y-ZH-20" value="" style="shape=tableRow;horizontal=0;startSize=0;swimlaneHead=0;swimlaneBody=0;fillColor=none;collapsible=0;dropTarget=0;points=[[0,0.5],[1,0.5]];portConstraint=eastwest;top=0;left=0;right=0;bottom=0;" vertex="1" parent="04tcgGShXZWp1IH_Y-ZH-16">
          <mxGeometry y="60" width="180" height="30" as="geometry" />
        </mxCell>
        <mxCell id="04tcgGShXZWp1IH_Y-ZH-21" value="" style="shape=partialRectangle;connectable=0;fillColor=none;top=0;left=0;bottom=0;right=0;editable=1;overflow=hidden;whiteSpace=wrap;html=1;" vertex="1" parent="04tcgGShXZWp1IH_Y-ZH-20">
          <mxGeometry width="30" height="30" as="geometry">
            <mxRectangle width="30" height="30" as="alternateBounds" />
          </mxGeometry>
        </mxCell>
        <mxCell id="04tcgGShXZWp1IH_Y-ZH-22" value="nombre_cliente" style="shape=partialRectangle;connectable=0;fillColor=none;top=0;left=0;bottom=0;right=0;align=left;spacingLeft=6;overflow=hidden;whiteSpace=wrap;html=1;" vertex="1" parent="04tcgGShXZWp1IH_Y-ZH-20">
          <mxGeometry x="30" width="150" height="30" as="geometry">
            <mxRectangle width="150" height="30" as="alternateBounds" />
          </mxGeometry>
        </mxCell>
        <mxCell id="04tcgGShXZWp1IH_Y-ZH-29" value="Facturas" style="shape=table;startSize=30;container=1;collapsible=1;childLayout=tableLayout;fixedRows=1;rowLines=0;fontStyle=1;align=center;resizeLast=1;html=1;" vertex="1" parent="04tcgGShXZWp1IH_Y-ZH-78">
          <mxGeometry x="300" y="40" width="180" height="120" as="geometry" />
        </mxCell>
        <mxCell id="04tcgGShXZWp1IH_Y-ZH-30" value="" style="shape=tableRow;horizontal=0;startSize=0;swimlaneHead=0;swimlaneBody=0;fillColor=none;collapsible=0;dropTarget=0;points=[[0,0.5],[1,0.5]];portConstraint=eastwest;top=0;left=0;right=0;bottom=1;" vertex="1" parent="04tcgGShXZWp1IH_Y-ZH-29">
          <mxGeometry y="30" width="180" height="30" as="geometry" />
        </mxCell>
        <mxCell id="04tcgGShXZWp1IH_Y-ZH-31" value="PK" style="shape=partialRectangle;connectable=0;fillColor=none;top=0;left=0;bottom=0;right=0;fontStyle=1;overflow=hidden;whiteSpace=wrap;html=1;" vertex="1" parent="04tcgGShXZWp1IH_Y-ZH-30">
          <mxGeometry width="30" height="30" as="geometry">
            <mxRectangle width="30" height="30" as="alternateBounds" />
          </mxGeometry>
        </mxCell>
        <mxCell id="04tcgGShXZWp1IH_Y-ZH-32" value="id_factura" style="shape=partialRectangle;connectable=0;fillColor=none;top=0;left=0;bottom=0;right=0;align=left;spacingLeft=6;fontStyle=5;overflow=hidden;whiteSpace=wrap;html=1;" vertex="1" parent="04tcgGShXZWp1IH_Y-ZH-30">
          <mxGeometry x="30" width="150" height="30" as="geometry">
            <mxRectangle width="150" height="30" as="alternateBounds" />
          </mxGeometry>
        </mxCell>
        <mxCell id="04tcgGShXZWp1IH_Y-ZH-42" value="" style="shape=tableRow;horizontal=0;startSize=0;swimlaneHead=0;swimlaneBody=0;fillColor=none;collapsible=0;dropTarget=0;points=[[0,0.5],[1,0.5]];portConstraint=eastwest;top=0;left=0;right=0;bottom=1;" vertex="1" parent="04tcgGShXZWp1IH_Y-ZH-29">
          <mxGeometry y="60" width="180" height="30" as="geometry" />
        </mxCell>
        <mxCell id="04tcgGShXZWp1IH_Y-ZH-43" value="FK" style="shape=partialRectangle;connectable=0;fillColor=none;top=0;left=0;bottom=0;right=0;fontStyle=1;overflow=hidden;whiteSpace=wrap;html=1;" vertex="1" parent="04tcgGShXZWp1IH_Y-ZH-42">
          <mxGeometry width="30" height="30" as="geometry">
            <mxRectangle width="30" height="30" as="alternateBounds" />
          </mxGeometry>
        </mxCell>
        <mxCell id="04tcgGShXZWp1IH_Y-ZH-44" value="id_cliente" style="shape=partialRectangle;connectable=0;fillColor=none;top=0;left=0;bottom=0;right=0;align=left;spacingLeft=6;fontStyle=5;overflow=hidden;whiteSpace=wrap;html=1;" vertex="1" parent="04tcgGShXZWp1IH_Y-ZH-42">
          <mxGeometry x="30" width="150" height="30" as="geometry">
            <mxRectangle width="150" height="30" as="alternateBounds" />
          </mxGeometry>
        </mxCell>
        <mxCell id="04tcgGShXZWp1IH_Y-ZH-33" value="" style="shape=tableRow;horizontal=0;startSize=0;swimlaneHead=0;swimlaneBody=0;fillColor=none;collapsible=0;dropTarget=0;points=[[0,0.5],[1,0.5]];portConstraint=eastwest;top=0;left=0;right=0;bottom=0;" vertex="1" parent="04tcgGShXZWp1IH_Y-ZH-29">
          <mxGeometry y="90" width="180" height="30" as="geometry" />
        </mxCell>
        <mxCell id="04tcgGShXZWp1IH_Y-ZH-34" value="" style="shape=partialRectangle;connectable=0;fillColor=none;top=0;left=0;bottom=0;right=0;editable=1;overflow=hidden;whiteSpace=wrap;html=1;" vertex="1" parent="04tcgGShXZWp1IH_Y-ZH-33">
          <mxGeometry width="30" height="30" as="geometry">
            <mxRectangle width="30" height="30" as="alternateBounds" />
          </mxGeometry>
        </mxCell>
        <mxCell id="04tcgGShXZWp1IH_Y-ZH-35" value="costo_total" style="shape=partialRectangle;connectable=0;fillColor=none;top=0;left=0;bottom=0;right=0;align=left;spacingLeft=6;overflow=hidden;whiteSpace=wrap;html=1;" vertex="1" parent="04tcgGShXZWp1IH_Y-ZH-33">
          <mxGeometry x="30" width="150" height="30" as="geometry">
            <mxRectangle width="150" height="30" as="alternateBounds" />
          </mxGeometry>
        </mxCell>
        <mxCell id="04tcgGShXZWp1IH_Y-ZH-46" value="Factura_Servicio" style="shape=table;startSize=30;container=1;collapsible=1;childLayout=tableLayout;fixedRows=1;rowLines=0;fontStyle=1;align=center;resizeLast=1;html=1;" vertex="1" parent="04tcgGShXZWp1IH_Y-ZH-78">
          <mxGeometry x="520" y="40" width="180" height="90" as="geometry" />
        </mxCell>
        <mxCell id="04tcgGShXZWp1IH_Y-ZH-47" value="" style="shape=tableRow;horizontal=0;startSize=0;swimlaneHead=0;swimlaneBody=0;fillColor=none;collapsible=0;dropTarget=0;points=[[0,0.5],[1,0.5]];portConstraint=eastwest;top=0;left=0;right=0;bottom=0;" vertex="1" parent="04tcgGShXZWp1IH_Y-ZH-46">
          <mxGeometry y="30" width="180" height="30" as="geometry" />
        </mxCell>
        <mxCell id="04tcgGShXZWp1IH_Y-ZH-48" value="PK,FK1" style="shape=partialRectangle;connectable=0;fillColor=none;top=0;left=0;bottom=0;right=0;fontStyle=1;overflow=hidden;whiteSpace=wrap;html=1;" vertex="1" parent="04tcgGShXZWp1IH_Y-ZH-47">
          <mxGeometry width="50" height="30" as="geometry">
            <mxRectangle width="50" height="30" as="alternateBounds" />
          </mxGeometry>
        </mxCell>
        <mxCell id="04tcgGShXZWp1IH_Y-ZH-49" value="id_factura" style="shape=partialRectangle;connectable=0;fillColor=none;top=0;left=0;bottom=0;right=0;align=left;spacingLeft=6;fontStyle=5;overflow=hidden;whiteSpace=wrap;html=1;" vertex="1" parent="04tcgGShXZWp1IH_Y-ZH-47">
          <mxGeometry x="50" width="130" height="30" as="geometry">
            <mxRectangle width="130" height="30" as="alternateBounds" />
          </mxGeometry>
        </mxCell>
        <mxCell id="04tcgGShXZWp1IH_Y-ZH-59" value="" style="shape=tableRow;horizontal=0;startSize=0;swimlaneHead=0;swimlaneBody=0;fillColor=none;collapsible=0;dropTarget=0;points=[[0,0.5],[1,0.5]];portConstraint=eastwest;top=0;left=0;right=0;bottom=0;" vertex="1" parent="04tcgGShXZWp1IH_Y-ZH-46">
          <mxGeometry y="60" width="180" height="30" as="geometry" />
        </mxCell>
        <mxCell id="04tcgGShXZWp1IH_Y-ZH-60" value="PK,FK2" style="shape=partialRectangle;connectable=0;fillColor=none;top=0;left=0;bottom=0;right=0;fontStyle=1;overflow=hidden;whiteSpace=wrap;html=1;" vertex="1" parent="04tcgGShXZWp1IH_Y-ZH-59">
          <mxGeometry width="50" height="30" as="geometry">
            <mxRectangle width="50" height="30" as="alternateBounds" />
          </mxGeometry>
        </mxCell>
        <mxCell id="04tcgGShXZWp1IH_Y-ZH-61" value="id_servicio" style="shape=partialRectangle;connectable=0;fillColor=none;top=0;left=0;bottom=0;right=0;align=left;spacingLeft=6;fontStyle=5;overflow=hidden;whiteSpace=wrap;html=1;" vertex="1" parent="04tcgGShXZWp1IH_Y-ZH-59">
          <mxGeometry x="50" width="130" height="30" as="geometry">
            <mxRectangle width="130" height="30" as="alternateBounds" />
          </mxGeometry>
        </mxCell>
        <mxCell id="04tcgGShXZWp1IH_Y-ZH-62" value="Servicios" style="shape=table;startSize=30;container=1;collapsible=1;childLayout=tableLayout;fixedRows=1;rowLines=0;fontStyle=1;align=center;resizeLast=1;html=1;" vertex="1" parent="04tcgGShXZWp1IH_Y-ZH-78">
          <mxGeometry x="740" y="40" width="180" height="120" as="geometry" />
        </mxCell>
        <mxCell id="04tcgGShXZWp1IH_Y-ZH-63" value="" style="shape=tableRow;horizontal=0;startSize=0;swimlaneHead=0;swimlaneBody=0;fillColor=none;collapsible=0;dropTarget=0;points=[[0,0.5],[1,0.5]];portConstraint=eastwest;top=0;left=0;right=0;bottom=1;" vertex="1" parent="04tcgGShXZWp1IH_Y-ZH-62">
          <mxGeometry y="30" width="180" height="30" as="geometry" />
        </mxCell>
        <mxCell id="04tcgGShXZWp1IH_Y-ZH-64" value="PK" style="shape=partialRectangle;connectable=0;fillColor=none;top=0;left=0;bottom=0;right=0;fontStyle=1;overflow=hidden;whiteSpace=wrap;html=1;" vertex="1" parent="04tcgGShXZWp1IH_Y-ZH-63">
          <mxGeometry width="30" height="30" as="geometry">
            <mxRectangle width="30" height="30" as="alternateBounds" />
          </mxGeometry>
        </mxCell>
        <mxCell id="04tcgGShXZWp1IH_Y-ZH-65" value="id_servicio" style="shape=partialRectangle;connectable=0;fillColor=none;top=0;left=0;bottom=0;right=0;align=left;spacingLeft=6;fontStyle=5;overflow=hidden;whiteSpace=wrap;html=1;" vertex="1" parent="04tcgGShXZWp1IH_Y-ZH-63">
          <mxGeometry x="30" width="150" height="30" as="geometry">
            <mxRectangle width="150" height="30" as="alternateBounds" />
          </mxGeometry>
        </mxCell>
        <mxCell id="04tcgGShXZWp1IH_Y-ZH-66" value="" style="shape=tableRow;horizontal=0;startSize=0;swimlaneHead=0;swimlaneBody=0;fillColor=none;collapsible=0;dropTarget=0;points=[[0,0.5],[1,0.5]];portConstraint=eastwest;top=0;left=0;right=0;bottom=0;" vertex="1" parent="04tcgGShXZWp1IH_Y-ZH-62">
          <mxGeometry y="60" width="180" height="30" as="geometry" />
        </mxCell>
        <mxCell id="04tcgGShXZWp1IH_Y-ZH-67" value="" style="shape=partialRectangle;connectable=0;fillColor=none;top=0;left=0;bottom=0;right=0;editable=1;overflow=hidden;whiteSpace=wrap;html=1;" vertex="1" parent="04tcgGShXZWp1IH_Y-ZH-66">
          <mxGeometry width="30" height="30" as="geometry">
            <mxRectangle width="30" height="30" as="alternateBounds" />
          </mxGeometry>
        </mxCell>
        <mxCell id="04tcgGShXZWp1IH_Y-ZH-68" value="nombre_servicio" style="shape=partialRectangle;connectable=0;fillColor=none;top=0;left=0;bottom=0;right=0;align=left;spacingLeft=6;overflow=hidden;whiteSpace=wrap;html=1;" vertex="1" parent="04tcgGShXZWp1IH_Y-ZH-66">
          <mxGeometry x="30" width="150" height="30" as="geometry">
            <mxRectangle width="150" height="30" as="alternateBounds" />
          </mxGeometry>
        </mxCell>
        <mxCell id="04tcgGShXZWp1IH_Y-ZH-69" value="" style="shape=tableRow;horizontal=0;startSize=0;swimlaneHead=0;swimlaneBody=0;fillColor=none;collapsible=0;dropTarget=0;points=[[0,0.5],[1,0.5]];portConstraint=eastwest;top=0;left=0;right=0;bottom=0;" vertex="1" parent="04tcgGShXZWp1IH_Y-ZH-62">
          <mxGeometry y="90" width="180" height="30" as="geometry" />
        </mxCell>
        <mxCell id="04tcgGShXZWp1IH_Y-ZH-70" value="" style="shape=partialRectangle;connectable=0;fillColor=none;top=0;left=0;bottom=0;right=0;editable=1;overflow=hidden;whiteSpace=wrap;html=1;" vertex="1" parent="04tcgGShXZWp1IH_Y-ZH-69">
          <mxGeometry width="30" height="30" as="geometry">
            <mxRectangle width="30" height="30" as="alternateBounds" />
          </mxGeometry>
        </mxCell>
        <mxCell id="04tcgGShXZWp1IH_Y-ZH-71" value="precio" style="shape=partialRectangle;connectable=0;fillColor=none;top=0;left=0;bottom=0;right=0;align=left;spacingLeft=6;overflow=hidden;whiteSpace=wrap;html=1;" vertex="1" parent="04tcgGShXZWp1IH_Y-ZH-69">
          <mxGeometry x="30" width="150" height="30" as="geometry">
            <mxRectangle width="150" height="30" as="alternateBounds" />
          </mxGeometry>
        </mxCell>
        <mxCell id="04tcgGShXZWp1IH_Y-ZH-75" style="edgeStyle=orthogonalEdgeStyle;rounded=0;orthogonalLoop=1;jettySize=auto;html=1;exitX=0;exitY=0.5;exitDx=0;exitDy=0;entryX=1;entryY=0.5;entryDx=0;entryDy=0;" edge="1" parent="04tcgGShXZWp1IH_Y-ZH-78" source="04tcgGShXZWp1IH_Y-ZH-63" target="04tcgGShXZWp1IH_Y-ZH-59">
          <mxGeometry relative="1" as="geometry" />
        </mxCell>
        <mxCell id="04tcgGShXZWp1IH_Y-ZH-76" style="edgeStyle=orthogonalEdgeStyle;rounded=0;orthogonalLoop=1;jettySize=auto;html=1;exitX=1;exitY=0.5;exitDx=0;exitDy=0;entryX=0;entryY=0.5;entryDx=0;entryDy=0;" edge="1" parent="04tcgGShXZWp1IH_Y-ZH-78" source="04tcgGShXZWp1IH_Y-ZH-30" target="04tcgGShXZWp1IH_Y-ZH-47">
          <mxGeometry relative="1" as="geometry" />
        </mxCell>
      </root>
    </mxGraphModel>
  </diagram>
</mxfile>
